<?xml version="1.0" standalone="no"?>
<!DOCTYPE svg PUBLIC "-//W3C//DTD SVG 20010904//EN"
 "http://www.w3.org/TR/2001/REC-SVG-20010904/DTD/svg10.dtd">
<svg version="1.0" xmlns="http://www.w3.org/2000/svg"
 width="600.000000pt" height="600.000000pt" viewBox="0 0 600.000000 600.000000"
 preserveAspectRatio="xMidYMid meet" >

<g transform="translate(0.000000,600.000000) scale(0.100000,-0.100000)"
fill="#6c28ac" stroke="none">
<path d="M2330 4625 l0 -775 -620 0 -620 0 0 492 0 492 -62 -95 c-159 -241
-424 -431 -693 -496 -60 -14 -116 -28 -122 -29 -10 -3 -13 -282 -13 -1354 l0
-1350 445 0 445 0 0 780 0 780 620 0 620 0 0 -780 0 -780 510 0 510 0 2 1204
3 1204 588 -918 588 -918 67 38 c96 56 179 80 291 87 127 7 218 -13 341 -73
216 -107 370 -343 370 -566 l0 -58 90 0 90 0 0 1945 0 1945 -442 -2 -443 -3
-5 -1199 -5 -1200 -769 1202 -770 1202 -508 0 -508 0 0 -775z"/>
<path d="M4830 2017 c-117 -22 -236 -105 -310 -217 -91 -136 -94 -358 -7 -500
57 -93 158 -174 262 -210 81 -28 223 -28 307 1 384 129 445 655 100 863 -108
64 -228 86 -352 63z"/>
</g>
</svg>
